Patient4_TMGait_0pt4_02_right_05_EMG.mot
version=1
nRows=30
nColumns=33
inDegrees=no
endheader
time	1LAddLong	2LGlutMax	3LGlutMed	4LIliopsoas	5LSemiMemb	6LBicFemLong	7LRecFem	8LVastMed	9LVastLat	10LGasMed	11LTibAnt	12lTibPost	13LPeroneusLong	14LSol	15LExtDigLong	16LFlexDigLong	17RAddLong	18RGlutMax	19RGlutMed	20RIliopsoas	21RSemiMemb	22RBicFemLong	23RRecFem	24RVastMed	25RVastLat	26RGasMed	27RTibAnt	28RTibPost	29RPeroneusLong	30RSol	31RExtDigLong	32RFlexDigLong
7.45	0.001831	-0.046387	-0.093689	0.007324	0.009155	0.005188	0.026703	0.006561	0.016022	0.075836	0.11398	-0.00351	-0.066986	0.23651	0.006866	0.54123	-0.001221	0.028687	-0.79468	0.066071	-0.040894	0.02594	-0.084076	-0.059204	0.00824	-0.00061	0.019531	-0.009308	0.11322	0.010376	0.000153	0.013428
7.451	0	-0.036926	-0.042572	0.000458	0.004578	-0.006714	0.001678	0.023346	0.004425	0.077209	0.018463	-0.001984	-0.05188	0.10117	0.001221	-0.14175	0.005188	0.027161	-0.33279	0.02533	-0.041351	0.024414	-0.088501	-0.041656	0.004272	0.005646	0.014801	-0.011597	0.15381	0.010376	-0.002441	0.003052
7.452	0.007782	-0.074921	0.0737	0.017853	0.006561	-0.019226	-0.028992	0.023193	0.096893	0.00473	-0.032654	0.001526	0.033569	-0.12741	-0.009766	-0.039825	0.005035	-0.009155	0.43976	-0.08667	-0.079803	0.020905	-0.10117	-0.076447	0.003815	-0.007019	-0.005341	-0.00946	0.14114	-0.00412	0.001984	-0.000305
7.453	0.008087	-0.080566	0.2092	0.000153	0.008545	0.008392	0.041962	0.019836	0.18494	-0.035095	-0.037537	-0.000763	0.055237	-0.1474	-0.028229	0.049896	0.018005	-0.092316	1.1012	-0.17044	-0.10071	0.03067	-0.068054	-0.045929	-0.001984	-0.005035	-0.014343	-0.007935	0.15198	-0.035248	0.001984	0.000916
7.454	0.00412	-0.12863	0.21698	0	0.003662	-0.017395	0.14191	0.011292	0.21576	0.01709	-0.015411	0.012207	-0.017242	-0.1326	0.000916	-0.068665	0.022583	-0.19577	0.85098	-0.22156	-0.072021	0.027771	-0.10712	-0.039063	0.024872	-0.003815	0.005341	-0.003357	0.14496	-0.02182	0.006866	0.002441
7.455	0.000305	-0.14252	0.27924	0.011444	0.007477	-0.008545	0.12421	-0.002441	0.18463	-0.06897	0.020294	0.020294	-0.049591	-0.078888	0.049591	-0.28091	0.015259	-0.22827	0.36835	-0.09903	-0.08316	0.03479	-0.071869	-0.063782	0.013428	-0.003662	0.015411	-0.002594	0.14343	-0.014954	0.004883	0.002136
7.456	0.002136	-0.11734	0.18234	0.001068	0.006561	0.010529	0.072174	-0.00946	0.14008	-0.056305	0.027618	0.038605	-0.025024	0.063019	0.011292	-0.003967	0.031281	-0.17227	0.19714	-0.052643	0.046082	0.001221	-0.059662	-0.031281	0.00885	-0.007477	0.019684	-0.009918	0.071259	0.016937	0.001221	-0.010223
7.457	-0.002899	-0.11002	0.14328	0.021973	0.009003	-0.006561	0.056305	-0.009308	0.10925	-0.028839	0.013123	0.058594	0.027771	0.3981	0.000763	-0.049438	0.003204	-0.17731	0.24826	0.033264	0.097961	-0.039063	-0.12604	-0.040436	0.00473	-0.00473	0.025482	-0.009003	-0.010681	-0.001068	0.002747	-0.006409
7.458	0.00351	-0.081635	0.1561	0.000916	0.005341	-0.019226	-0.068512	0.021057	-0.14465	-0.007019	0.037994	-0.062103	-0.014648	0.10254	0.00946	-0.19302	0.006714	-0.12436	0.24765	0.17563	0.088501	-0.087738	-0.10605	-0.048523	0.005188	-0.006104	0.021973	-0.006866	0.020294	-0.001831	0.001221	0.00351
7.459	0.00351	-0.079041	0.13626	0.012054	0.006409	-0.040131	-0.16556	0.029755	-0.42801	-0.049133	0.033264	-0.057526	0.021515	-0.35873	-0.011139	0.066681	-0.001678	-0.11887	0.052032	0.25818	0.07309	-0.067139	-0.11658	-0.056458	0.005341	-0.007477	0.005951	-0.00824	0.16541	-0.001984	0.00061	-0.000458
7.46	0.008392	-0.093994	0.079193	-0.005798	0.007324	-0.048065	-0.28351	0.021057	-0.18524	-0.04425	-0.070953	0.001831	0.070038	-0.51132	-0.017395	0.037537	-0.014648	-0.14114	-0.19073	0.15762	0.011597	-0.06546	-0.12085	-0.034943	-0.000305	-0.010071	0.015259	-0.011749	0.13077	-0.028687	0.002441	-0.003052
7.461	0.033722	-0.07431	0.028229	0.01297	0.005341	-0.022888	-0.12558	0.013123	0.14648	-0.042114	-0.11124	0.001984	0.13855	-0.21347	-0.016174	-0.033264	-0.004578	-0.11429	-0.24002	-0.036163	-0.046234	-0.051575	-0.11246	-0.017853	0.026398	-0.007935	0.017548	-0.010223	0.014648	-0.012054	-0.001526	-0.004272
7.462	0.016327	-0.057983	0.040283	0.018463	-0.003967	0.013733	0.063324	-0.01236	0.24139	-0.031433	0.058899	-0.000153	0.032806	0.067749	0.10849	-0.022888	0.022278	-0.070953	-0.085144	-0.091095	0.015564	0.029602	-0.10391	-0.072021	0.01297	-0.009155	0.0177	-0.009308	-0.059357	-0.01297	0.00061	-0.001984
7.463	-0.013885	-0.043793	0.088043	0.017395	0.001221	0.00824	0.14694	-0.037842	0.17425	0.009308	0.10437	-0.001373	-0.044403	0.21423	0.29327	-0.018616	0.014191	-0.020599	-0.19653	-0.04364	-0.02655	0.090027	-0.11932	-0.060577	0.024109	-0.010681	0.027924	-0.007019	-0.20447	-0.019989	0.001221	0
7.464	0.022888	-0.068054	0.080261	0.005646	0.006409	0.006409	0.20187	-0.048676	0.017853	0.017853	-0.068054	0.002594	-0.021362	0.18478	0.6398	-0.008545	0.009766	0.00885	-0.33218	-0.025024	-0.12711	0.094147	-0.11734	-0.098419	0.014191	-0.00885	0.039673	-0.007935	-0.21957	-0.018158	0.000305	0.002899
7.465	0.003815	-0.085297	0.08728	0.011902	0.002594	-0.00061	0.12253	-0.03006	-0.050354	-0.023499	-0.001526	0.00061	0.012512	0.15152	-0.10849	-0.0177	0.010986	0.013428	-0.4306	-0.012207	-0.22919	0.086517	-0.10773	-0.041199	0.020752	-0.010376	0.029907	-0.002747	-0.17639	-0.02243	0.002594	-0.001526
7.466	0.005951	-0.10788	0.082092	0.006256	0.003052	-0.011444	0.10544	-0.019073	-0.072479	-0.032043	0.15503	-0.004883	0.0177	0.12726	-0.22247	-0.028839	-0.00473	0.005035	-0.42725	-0.022278	-0.13702	0.093384	-0.090942	-0.085297	0.025787	-0.007782	-0.038452	-0.015869	0.34958	-0.02533	0.000153	-0.010834
7.467	0.001831	-0.081024	0.053253	0.021973	0.005646	-0.014191	0.11002	-0.00412	-0.057526	-0.027466	0.36087	-0.005341	-0.03067	0.10635	-0.16663	-0.033417	-0.042419	-0.009308	-0.053864	0.028381	0.066071	0.066986	-0.16571	-0.000763	0.026093	-0.00885	-0.02533	-0.010071	0.26657	-0.016174	0.001221	-0.011444
7.468	-0.001373	-0.048523	0.10483	-0.00351	0.005493	-0.027771	0.070496	-0.002289	-0.024567	-0.047302	0.39337	0.007629	-0.059052	0.071716	-0.28061	-0.014343	-0.050812	-0.006256	0.14938	0.1152	0.13626	0.04837	-0.11856	0.015564	0.024567	-0.008545	-0.014343	-0.00824	0.14969	-0.019531	-0.000153	-0.012054
7.469	0.011139	-0.038147	0.083008	0.001678	0.005035	-0.007782	-0.024109	-0.006256	0.016937	-0.042572	0.17685	0.002441	0.018005	0.084991	-0.21729	-0.01358	-0.028076	-0.002136	0.14175	0.097504	0.072937	0.006256	-0.10971	0.04364	0.021362	-0.005798	-0.017548	-0.011749	0.14694	-0.01709	0.000916	-0.012207
7.47	0.003815	-0.071411	0.072479	-0.005188	0.004883	0.002136	0.006409	-0.006866	-0.012054	-0.003662	0.24033	-0.000763	-0.053558	0.083466	0.25452	-0.007019	-0.024567	-0.0354	0.50186	0.080261	-0.056458	-0.024414	-0.13763	0.09964	0.022583	-0.004425	-0.007324	-0.00885	0.061951	-0.042114	0.001831	-0.014343
7.471	0.006561	-0.059204	0.11353	-0.000153	0.017853	0.011292	0.007782	-0.003052	-0.064697	-0.033875	0.11353	0.007935	0.011444	0.13397	0.11505	0.006561	-0.018921	-0.045471	0.28229	0.024719	-0.054779	-0.070496	-0.086823	0.031891	0.010071	-0.003815	0.033875	-0.00824	-0.054932	-0.014191	0.002441	-0.028076
7.472	0.014648	-0.060883	0.076599	0.008392	0.007019	0.011444	-0.019073	0.001984	-0.10178	-0.08728	-0.14496	0.001831	0.1326	0.17975	-0.22553	0.013885	-0.008698	-0.09079	0.29465	-0.07431	-0.087891	-0.13489	-0.091248	-0.006561	0.015717	-0.007019	0.024261	-0.008698	-0.052185	-0.005646	0.003357	-0.021515
7.473	0.000305	-0.039978	0.027008	0.003815	0.00946	-0.01236	-0.031891	-0.002289	-0.025635	-0.044556	-0.21103	-0.002899	-0.004883	0.1181	-0.13077	0.010071	0.007782	-0.072174	0.60242	-0.11093	-0.13702	-0.12695	-0.044708	-0.018005	0.021057	-0.003052	0.019989	-0.007935	-0.016174	-0.031433	-0.002136	-0.022583
7.474	0.001831	-0.055695	0.048981	-0.003052	0.005951	0.019073	-0.07019	-0.004272	0.027161	-0.063019	-0.31097	0.006714	0.001526	-0.009155	-0.094452	0.011444	0.00473	-0.073395	0.61569	-0.078735	-0.16571	-0.096588	-0.061798	-0.010223	0.007324	-0.002747	0.005188	-0.003357	0.053253	-0.036469	0.000763	-0.02655
7.475	0.000305	-0.0383	0.14374	0.007935	0.002441	0.007782	-0.00412	-0.00412	-0.038452	-0.047913	-0.39307	0.002441	0.094757	-0.028687	-0.47501	-0.016632	0.039368	-0.082397	0.44067	-0.030365	-0.15686	-0.11246	-0.043945	-0.076141	0.013123	-0.001373	0.005951	-0.004578	0.027466	-0.032959	0.002136	-0.02533
7.476	-0.000153	-0.05249	0.15091	0.009003	0.002441	-0.000916	0.030365	-0.008087	-0.06012	0.035095	-0.35538	0.003357	0.09552	-0.10315	-0.38513	-0.02243	0.059052	-0.05188	-0.19424	0.10712	-0.17731	-0.11734	-0.044556	-0.021667	0.006409	-0.00885	0.011444	-0.005798	-0.30655	-0.027161	0.009613	-0.025787
7.477	-0.003052	-0.064087	0.14999	0.008087	-0.006714	-0.002899	0.071869	0.002899	-0.045776	0.072937	-0.24063	-0.004425	0.01358	-0.15823	-0.5159	-0.034485	0.041656	-0.053406	-0.6424	0.10635	-0.40146	-0.090942	-0.084229	-0.010071	0.026398	-0.01236	0.028992	-0.000916	-0.068359	-0.000763	0.00351	-0.026703
7.478	0.002747	-0.10696	0.022125	0.011597	0.010223	-0.036774	0.15976	0.008545	-0.021057	0.071869	-0.20401	0.001068	0.046844	-0.075073	-0.29114	-0.010986	0.030212	-0.041046	-0.87692	0.057373	-0.52261	-0.013123	-0.089417	-0.029297	0.027924	-0.007172	0.031738	-0.012207	0.017548	0.016327	0.002441	-0.031433
7.479	0.00946	-0.093842	-0.014038	-0.003662	0.006104	-0.014648	0.14175	0.023346	0.020447	0.068054	-0.13901	-0.012207	0.026398	-0.00351	-0.10223	0.10178	-0.020294	-0.039825	-1.169	0.032959	-0.19318	0.066681	-0.090637	0.003357	0.035706	-0.007019	0.022888	-0.010071	0.037079	-0.018921	0.001068	-0.030365
